<svg width="32" height="30" viewBox="0 0 32 30" fill="none" xmlns="http://www.w3.org/2000/svg">
<path d="M31.8479 8.41541L10.8337 9.41097C10.5782 9.42307 10.337 9.53198 10.1589 9.71557L9.62241 10.2688C9.47353 10.4223 9.37742 10.6193 9.34804 10.8311L8.60709 16.1718C8.58792 16.31 8.46974 16.4129 8.33018 16.4129H8.08673C7.94715 16.4129 7.82893 16.31 7.80966 16.1718L7.06498 10.8307C7.03548 10.6191 6.93942 10.4224 6.79071 10.2691L6.21614 9.67661C6.06098 9.51662 5.85708 9.41266 5.63646 9.38106L0.240971 8.60818C0.102676 8.58837 -2.28882e-05 8.46991 -2.28882e-05 8.33021V8.08675C-2.28882e-05 7.94702 0.102644 7.82852 0.240948 7.80862L5.63686 7.03201C5.85724 7.0003 6.06087 6.89638 6.21588 6.73655L6.79071 6.14384C6.93942 5.99049 7.03548 5.79379 7.06498 5.58222L7.80966 0.24112C7.82893 0.102882 7.94715 0 8.08673 0H8.33018C8.46974 0 8.58792 0.102915 8.60709 0.241145L9.34804 5.58182C9.37742 5.79364 9.47353 5.99059 9.62241 6.1441L10.1589 6.69733C10.337 6.88092 10.5782 6.98982 10.8337 7.00193L31.8479 7.99748" fill="#0A1D2B"/>
<path d="M0.00158691 21.3829L21.0158 22.3785C21.2712 22.3906 21.5125 22.4995 21.6906 22.6831L22.2271 23.2363C22.376 23.3898 22.4721 23.5868 22.5014 23.7986L23.2424 29.1393C23.2616 29.2775 23.3798 29.3804 23.5193 29.3804H23.7628C23.9023 29.3804 24.0206 29.2775 24.0398 29.1393L24.7845 23.7982C24.814 23.5866 24.9101 23.3899 25.0588 23.2366L25.6333 22.6441C25.7885 22.4841 25.9924 22.3802 26.213 22.3486L31.6085 21.5757C31.7468 21.5559 31.8495 21.4374 31.8495 21.2977V21.0543C31.8495 20.9146 31.7468 20.7961 31.6085 20.7761L26.2126 19.9995C25.9923 19.9678 25.7886 19.8639 25.6336 19.7041L25.0588 19.1114C24.9101 18.958 24.814 18.7613 24.7845 18.5498L24.0398 13.2086C24.0206 13.0704 23.9023 12.9675 23.7628 12.9675H23.5193C23.3798 12.9675 23.2616 13.0704 23.2424 13.2087L22.5014 18.5493C22.4721 18.7612 22.376 18.9581 22.2271 19.1116L21.6906 19.6649C21.5125 19.8484 21.2713 19.9574 21.0158 19.9695L0.00158691 20.965" fill="#0A1D2B"/>
</svg>
