<svg width="145" height="33" viewBox="0 0 145 33" fill="none" xmlns="http://www.w3.org/2000/svg">
<path d="M1 21.6066L22.4118 22.621L23.4546 23.6962L24.2743 29.6041H24.5177H24.7612H25.0046L25.8283 23.6962L26.8711 22.621L32.8479 21.7648V21.5214V21.2779V21.0345L26.8711 20.1743L25.8283 19.099L25.0046 13.1912H24.7612H24.5177H24.2743L23.4546 19.099L22.4118 20.1743L1 21.1886" fill="#FEEAE1"/>
<path d="M1 21.6066L22.0142 22.6021C22.2697 22.6142 22.5109 22.7231 22.689 22.9067L23.2255 23.46C23.3744 23.6135 23.4705 23.8104 23.4999 24.0222L24.2408 29.3629C24.26 29.5011 24.3782 29.6041 24.5177 29.6041H24.7612C24.9007 29.6041 25.019 29.5012 25.0382 29.3629L25.7829 24.0218C25.8124 23.8103 25.9085 23.6136 26.0572 23.4602L26.6318 22.8678C26.7869 22.7078 26.9908 22.6038 27.2114 22.5722L32.6069 21.7993C32.7452 21.7795 32.8479 21.6611 32.8479 21.5214V21.2779C32.8479 21.1382 32.7453 21.0197 32.607 20.9998L27.211 20.2232C26.9907 20.1915 26.787 20.0875 26.632 19.9277L26.0572 19.335C25.9085 19.1816 25.8124 18.985 25.7829 18.7734L25.0382 13.4323C25.019 13.294 24.9007 13.1912 24.7612 13.1912H24.5177C24.3782 13.1912 24.26 13.2941 24.2408 13.4323L23.4999 18.773C23.4705 18.9848 23.3744 19.1818 23.2255 19.3353L22.689 19.8885C22.5109 20.0721 22.2697 20.181 22.0142 20.1931L1 21.1886" fill="#FEEAE1"/>
<path d="M36.7107 4.19453C36.4454 4.19453 36.4454 4.36037 36.5449 4.45988C36.9429 4.99058 37.1751 6.58269 37.1751 8.73867V20.6795C37.1751 22.8355 36.9429 24.3944 36.5449 24.9251C36.4454 25.0578 36.4454 25.2236 36.7107 25.2236H49.7793C49.9451 25.2236 50.31 25.1905 50.4427 24.6598L51.2055 21.4755C51.2387 21.3097 50.8407 21.2434 50.6085 21.4092C49.8124 22.1389 47.7891 23.7974 45.2683 23.7974H42.2168C41.3875 23.7974 41.288 23.6979 41.288 22.736V15.2398H45.3015C46.8936 15.2398 48.0213 15.9363 48.4193 15.9695C48.5189 15.9695 48.552 15.9032 48.5852 15.87V13.2165C48.552 13.1833 48.5189 13.1501 48.4193 13.1501C48.0213 13.1833 46.6614 13.8467 45.3015 13.8467H41.288V5.55445H45.3678C47.0594 5.55445 48.9169 6.45001 49.6798 7.24607C49.8456 7.37874 50.1441 7.34557 50.1773 7.24607L50.1441 4.7584C50.1441 4.22769 49.9783 4.19453 49.4808 4.19453H36.7107ZM65.1225 14.2447C65.9517 12.2546 66.6151 11.2595 67.0131 10.8947C67.1458 10.7951 67.1126 10.6293 66.98 10.6293H63.8952C63.6631 10.6293 63.6631 10.7951 63.6962 10.8947C63.9284 11.1932 63.7294 12.5199 63.066 14.2447L60.114 21.6414L56.9961 14.3442C56.1005 12.1882 55.9347 11.4254 56.0342 10.8947C56.0342 10.762 56.1005 10.6293 55.8352 10.6293H51.4237C51.2579 10.6293 51.2247 10.7288 51.3574 10.8947C51.8549 11.4585 52.4851 12.8516 53.1485 14.3442L57.8585 25.2236H60.3793L65.1225 14.2447ZM71.2953 17.6279L80.9143 17.5948C81.2128 17.5948 81.3455 17.3958 81.3455 17.1304C81.3455 15.1403 80.8479 13.4818 79.8197 12.1882C78.7915 10.8615 77.1662 10.1981 74.9439 10.1981C72.7216 10.1981 70.9304 10.8947 69.5373 12.3209C68.1442 13.7472 67.4477 15.671 67.4477 18.0923C67.4477 23.1008 70.3666 25.688 75.0102 25.688C77.7964 25.688 79.7865 24.6266 81.0138 22.9018C81.0801 22.8023 81.0138 22.6365 80.8479 22.3379C80.6821 22.0394 80.5494 21.9067 80.5163 21.9399C79.3222 22.9018 77.9954 23.532 75.9721 23.532C73.2191 23.532 71.3285 22.0394 71.2953 18.026V17.6279ZM74.9107 11.5912C76.8677 11.5912 77.8959 13.515 77.7964 16.3012L71.3616 16.467C71.627 13.3823 72.7547 11.5912 74.9107 11.5912ZM84.452 20.6795C84.452 23.0345 84.3525 24.3944 83.9213 24.9251C83.8217 25.0578 83.8217 25.2236 84.0871 25.2236H88.3327C88.6312 25.2236 88.6312 25.0578 88.5317 24.9251C88.1005 24.4276 88.001 23.0345 88.001 20.6795V14.0457C88.6976 13.6145 89.9248 13.0506 91.2516 13.0506C92.0808 13.0506 93.0095 13.2828 93.7061 13.714C93.8056 13.7472 94.0046 13.7803 94.0378 13.6145L94.3363 10.7288C94.0378 10.563 93.3412 10.3308 92.7774 10.3308C90.3892 10.3308 88.6976 12.1551 88.001 13.1833V10.5961L83.5232 10.9278C83.4237 10.9278 83.3242 11.0937 83.4901 11.2595C83.8881 11.6907 84.452 12.6526 84.452 14.3442V20.6795ZM102.725 24.1954C100.071 24.1954 97.8823 22.9681 96.8209 21.4755C96.6882 21.376 96.3233 21.3097 96.1907 21.4755L96.1243 23.5984C96.0911 24.3612 96.1243 24.4939 96.6882 24.7924C97.7828 25.3231 99.9387 25.7212 102.725 25.7212C107.634 25.7212 111.283 23.5984 111.283 19.1537C111.283 17.3294 110.652 15.9695 109.425 15.0739C108.198 14.1784 106.573 13.3823 104.516 12.7189C101.896 11.8234 100.138 10.9278 100.138 8.57282C100.138 6.48318 101.564 5.18959 104.184 5.18959C106.573 5.18959 108.629 6.11832 109.724 7.61093C109.823 7.71043 110.155 7.7436 110.287 7.57776L110.52 5.7203C110.553 5.02375 110.486 4.82474 109.923 4.59255C108.861 4.16136 107.103 3.69699 104.151 3.69699C99.408 3.69699 96.3897 5.91931 96.3897 9.63423C96.3565 11.359 96.9204 12.7189 98.0149 13.6808C99.1095 14.6427 100.569 15.4388 102.36 16.069C103.753 16.5665 104.947 17.0641 105.975 17.5948C107.004 18.0923 107.534 19.021 107.534 20.3146C107.534 22.6033 105.909 24.1954 102.725 24.1954ZM114.134 3.73016C114.035 3.73016 113.968 3.89601 114.101 4.06185C114.499 4.45988 115.063 5.45495 115.063 7.14656V20.6795C115.063 23.0345 114.963 24.3944 114.532 24.9251C114.433 25.0578 114.433 25.2236 114.698 25.2236H118.91C119.209 25.2236 119.209 25.0578 119.109 24.9251C118.678 24.4276 118.612 23.0345 118.612 20.6795V18.2913L120.038 17.0641C120.967 18.5567 121.763 19.8503 122.592 21.0443C123.687 22.6033 124.848 23.7642 126.141 24.5934C127.203 25.1573 128.397 25.3895 129.458 25.3895C129.989 25.3895 130.519 25.3231 130.752 25.29C130.884 25.2568 130.917 25.1241 130.652 24.9583C129.027 23.7974 127.468 21.8404 125.511 19.1537C124.483 17.6611 123.687 16.5997 122.725 15.0076L124.052 13.913C126.208 12.1882 127.833 11.3258 128.629 10.8947C128.795 10.7951 128.728 10.6293 128.562 10.6293H124.35C124.052 10.6293 124.118 10.7951 124.118 10.8947C124.151 11.6907 123.919 12.1551 122.725 13.2496L118.612 16.9314V3.3653L114.134 3.73016ZM142.926 14.2447C143.689 12.3541 144.419 11.2595 144.85 10.8947C144.983 10.7951 144.95 10.6293 144.817 10.6293H141.699C141.467 10.6293 141.467 10.762 141.5 10.8947C141.666 11.2595 141.533 12.5199 140.87 14.2447L137.951 21.8072L134.833 14.3442C133.937 12.1882 133.772 11.4585 133.871 10.8947C133.904 10.7951 133.937 10.6293 133.639 10.6293H129.294C129.128 10.6293 129.062 10.7288 129.194 10.8947C129.625 11.4585 130.355 12.8516 130.985 14.3442L135.662 25.1905H136.326L133.44 30.3648C133.141 30.9287 132.544 32.0233 132.246 32.1891C132.08 32.355 132.08 32.5208 132.246 32.5208H135.53L138.714 24.3612L142.926 14.2447Z" fill="#FEEAE1"/>
<path d="M32.8463 8.63905L11.8321 9.6346C11.5767 9.64671 11.3354 9.75562 11.1573 9.9392L10.6208 10.4924C10.4719 10.6459 10.3758 10.8429 10.3465 11.0547L9.6055 16.3954C9.58633 16.5336 9.46815 16.6365 9.3286 16.6365H9.08514C8.94556 16.6365 8.82734 16.5337 8.80807 16.3954L8.06339 11.0543C8.0339 10.8427 7.93784 10.646 7.78912 10.4927L7.21455 9.90025C7.05939 9.74025 6.8555 9.63629 6.63487 9.60469L1.23938 8.83181C1.10109 8.812 0.99839 8.69355 0.99839 8.55384V8.31038C0.99839 8.17065 1.10106 8.05215 1.23936 8.03225L6.63527 7.25565C6.85565 7.22393 7.05929 7.12002 7.21429 6.96019L7.78912 6.36747C7.93784 6.21412 8.0339 6.01743 8.06339 5.80586L8.80807 0.464753C8.82734 0.326514 8.94556 0.223633 9.08514 0.223633H9.3286C9.46815 0.223633 9.58633 0.326548 9.6055 0.464778L10.3465 5.80545C10.3758 6.01727 10.4719 6.21422 10.6208 6.36774L11.1573 6.92096C11.3354 7.10455 11.5766 7.21346 11.8321 7.22556L32.8463 8.22112" fill="#FEEAE1"/>
<path d="M32.8479 8.63499L11.4361 9.65344L10.3933 10.7287L9.5696 16.6365H9.32615H9.08269H8.83924L8.01961 10.7287L6.97681 9.65344L1 8.79324V8.54978V8.30633V8.06287L6.97681 7.20267L8.01961 6.13147L8.83924 0.223633H9.08269H9.32615H9.5696L10.3933 6.13147L11.4361 7.20267L32.8479 8.22112" fill="#FEEAE1"/>
</svg>
